<mxfile host="65bd71144e">
    <diagram id="cSA_nXkR_3tp82KD9gRc" name="ページ1">
        <mxGraphModel dx="1076" dy="802" grid="1" gridSize="10" guides="1" tooltips="1" connect="1" arrows="1" fold="1" page="1" pageScale="1" pageWidth="827" pageHeight="1169" math="0" shadow="0">
            <root>
                <mxCell id="0"/>
                <mxCell id="1" parent="0"/>
                <mxCell id="2" value="リバーシ&lt;div&gt;アプリケーション&lt;/div&gt;" style="rounded=0;whiteSpace=wrap;html=1;fillColor=none;verticalAlign=top;" vertex="1" parent="1">
                    <mxGeometry x="199" y="80" width="561" height="560" as="geometry"/>
                </mxCell>
                <mxCell id="3" value="プレイヤー" style="shape=umlActor;verticalLabelPosition=bottom;verticalAlign=top;html=1;" vertex="1" parent="1">
                    <mxGeometry x="40" y="200" width="30" height="60" as="geometry"/>
                </mxCell>
                <mxCell id="5" value="対戦する" style="ellipse;whiteSpace=wrap;html=1;" vertex="1" parent="1">
                    <mxGeometry x="300" y="220" width="140" height="70" as="geometry"/>
                </mxCell>
                <mxCell id="6" value="" style="endArrow=none;html=1;" edge="1" parent="1" source="3" target="5">
                    <mxGeometry relative="1" as="geometry">
                        <mxPoint x="200" y="340" as="sourcePoint"/>
                        <mxPoint x="360" y="340" as="targetPoint"/>
                    </mxGeometry>
                </mxCell>
                <mxCell id="9" value="・対戦を開始する&lt;div&gt;・盤面を見る&lt;/div&gt;&lt;div&gt;・石を打つ&lt;/div&gt;&lt;div&gt;・勝敗を確認する&lt;/div&gt;" style="shape=note;whiteSpace=wrap;html=1;backgroundOutline=1;darkOpacity=0.05;fillColor=#ffe6cc;strokeColor=#d79b00;align=left;" vertex="1" parent="1">
                    <mxGeometry x="540" y="120" width="140" height="80" as="geometry"/>
                </mxCell>
                <mxCell id="10" value="" style="endArrow=none;dashed=1;html=1;" edge="1" parent="1" source="5" target="9">
                    <mxGeometry width="50" height="50" relative="1" as="geometry">
                        <mxPoint x="510" y="410" as="sourcePoint"/>
                        <mxPoint x="560" y="360" as="targetPoint"/>
                    </mxGeometry>
                </mxCell>
                <mxCell id="11" value="会員登録・&lt;div&gt;ログインする&lt;/div&gt;" style="ellipse;whiteSpace=wrap;html=1;" vertex="1" parent="1">
                    <mxGeometry x="300" y="120" width="140" height="70" as="geometry"/>
                </mxCell>
                <mxCell id="12" value="" style="endArrow=none;html=1;" edge="1" parent="1" target="11" source="3">
                    <mxGeometry relative="1" as="geometry">
                        <mxPoint x="170" y="252" as="sourcePoint"/>
                        <mxPoint x="360" y="238" as="targetPoint"/>
                    </mxGeometry>
                </mxCell>
                <mxCell id="13" value="自分の&lt;div&gt;過去の対戦結果を&lt;/div&gt;&lt;div&gt;確認する&lt;/div&gt;" style="ellipse;whiteSpace=wrap;html=1;" vertex="1" parent="1">
                    <mxGeometry x="300" y="320" width="140" height="70" as="geometry"/>
                </mxCell>
                <mxCell id="14" value="" style="endArrow=none;html=1;" edge="1" parent="1" target="13" source="3">
                    <mxGeometry relative="1" as="geometry">
                        <mxPoint x="70" y="331" as="sourcePoint"/>
                        <mxPoint x="360" y="440" as="targetPoint"/>
                    </mxGeometry>
                </mxCell>
                <mxCell id="15" value="一人で黒白&lt;div&gt;交互に打つ&lt;/div&gt;" style="ellipse;whiteSpace=wrap;html=1;" vertex="1" parent="1">
                    <mxGeometry x="540" y="220" width="140" height="70" as="geometry"/>
                </mxCell>
                <mxCell id="16" value="Extends" style="endArrow=block;endSize=16;endFill=0;html=1;" edge="1" parent="1" source="15" target="5">
                    <mxGeometry width="160" relative="1" as="geometry">
                        <mxPoint x="330" y="410" as="sourcePoint"/>
                        <mxPoint x="490" y="410" as="targetPoint"/>
                    </mxGeometry>
                </mxCell>
                <mxCell id="17" value="コンピュータと&lt;div&gt;対戦する&lt;/div&gt;" style="ellipse;whiteSpace=wrap;html=1;" vertex="1" parent="1">
                    <mxGeometry x="540" y="320" width="140" height="70" as="geometry"/>
                </mxCell>
                <mxCell id="18" value="Extends" style="endArrow=block;endSize=16;endFill=0;html=1;" edge="1" parent="1" source="17" target="5">
                    <mxGeometry width="160" relative="1" as="geometry">
                        <mxPoint x="529.5" y="320" as="sourcePoint"/>
                        <mxPoint x="429.5" y="320" as="targetPoint"/>
                    </mxGeometry>
                </mxCell>
                <mxCell id="19" value="ほかのプレイヤーと&lt;div&gt;対戦する&lt;/div&gt;" style="ellipse;whiteSpace=wrap;html=1;" vertex="1" parent="1">
                    <mxGeometry x="540" y="403" width="140" height="70" as="geometry"/>
                </mxCell>
                <mxCell id="20" value="Extends" style="endArrow=block;endSize=16;endFill=0;html=1;" edge="1" parent="1" source="19" target="5">
                    <mxGeometry width="160" relative="1" as="geometry">
                        <mxPoint x="529.5" y="403" as="sourcePoint"/>
                        <mxPoint x="424" y="360" as="targetPoint"/>
                    </mxGeometry>
                </mxCell>
                <mxCell id="21" value="プレイヤーの&lt;div&gt;ランキングを&lt;/div&gt;&lt;div&gt;確認する&lt;/div&gt;" style="ellipse;whiteSpace=wrap;html=1;" vertex="1" parent="1">
                    <mxGeometry x="300" y="404" width="140" height="70" as="geometry"/>
                </mxCell>
                <mxCell id="22" value="" style="endArrow=none;html=1;" edge="1" parent="1" target="21" source="3">
                    <mxGeometry relative="1" as="geometry">
                        <mxPoint x="70" y="320" as="sourcePoint"/>
                        <mxPoint x="360" y="524" as="targetPoint"/>
                    </mxGeometry>
                </mxCell>
                <mxCell id="23" value="" style="rounded=0;whiteSpace=wrap;html=1;fillColor=none;strokeColor=#FF0000;strokeWidth=4;" vertex="1" parent="1">
                    <mxGeometry x="280" y="210" width="410" height="190" as="geometry"/>
                </mxCell>
            </root>
        </mxGraphModel>
    </diagram>
</mxfile>